Coordinates
version=1
nRows=26
nColumns=22
inDegrees=yes

Units are S.I. units (second, meters, Newtons, ...)
If the header above contains a line with 'inDegrees', this indicates whether rotational values are in degrees (yes) or radians (no).

endheader
time	pelvis_tilt	pelvis_list	pelvis_rotation	pelvis_tx	pelvis_ty	pelvis_tz	hip_flexion_r	hip_adduction_r	hip_rotation_r	knee_angle_r	ankle_angle_r	subtalar_angle_r	hip_flexion_l	hip_adduction_l	hip_rotation_l	knee_angle_l	ankle_angle_l	subtalar_angle_l	lumbar_extension	lumbar_bending	lumbar_rotation
      3.73000000	      0.67009704	     -3.61106976	     89.28852075	      0.46182006	      0.88671123	     -0.22848341	     11.81870489	      0.96900620	     -1.76732079	    -14.32330092	     10.51007573	     -2.50644415	     24.30485206	     -7.99027330	      0.89878478	    -43.04595513	     14.02364098	      3.79685409	     -3.01894584	      1.86652449	     17.83702344
      3.74000000	      0.71315707	     -3.81285346	     88.98028658	      0.46297190	      0.88650610	     -0.23120449	     11.77751084	      1.12819780	     -1.57702108	    -14.16185712	     10.59793269	     -2.50954372	     24.16531789	     -8.21263147	      1.19944460	    -41.32752968	     14.17412430	      3.29702223	     -2.76624529	      1.89668299	     17.93930725
      3.75000000	      0.73966848	     -4.03037278	     88.65937885	      0.46401787	      0.88626442	     -0.23383624	     11.77471487	      1.26584394	     -1.35046350	    -14.02743729	     10.67623512	     -2.52285140	     23.99315545	     -8.42195933	      1.48755058	    -39.60572676	     14.28106930	      2.97649953	     -2.49851889	      1.91741063	     18.02892974
      3.76000000	      0.75900912	     -4.27337488	     88.34550599	      0.46493487	      0.88595640	     -0.23636140	     11.81803130	      1.38957460	     -1.10957802	    -13.91465394	     10.75293249	     -2.53816530	     23.81622577	     -8.61256646	      1.80384768	    -37.90505506	     14.37527552	      2.82451799	     -2.20762853	      1.94122609	     18.04603625
      3.77000000	      0.74360197	     -4.49900303	     88.00197294	      0.46577942	      0.88567690	     -0.23879033	     11.87293613	      1.47622074	     -0.81606752	    -13.84303304	     10.83830570	     -2.57032413	     23.56867741	     -8.77702555	      2.06300224	    -36.20141418	     14.38198594	      2.71615833	     -1.94380214	      1.92959797	     18.08411645
      3.78000000	      0.70540157	     -4.70370597	     87.63925440	      0.46653336	      0.88542000	     -0.24113672	     11.93647647	      1.53419219	     -0.52107029	    -13.81639420	     10.95839718	     -2.62624977	     23.25736581	     -8.92084371	      2.27274357	    -34.51281683	     14.31167083	      2.71021485	     -1.70986148	      1.89815620	     18.13410514
      3.79000000	      0.65852628	     -4.92479526	     87.28978948	      0.46714483	      0.88512135	     -0.24339372	     12.02722029	      1.57424868	     -0.22212947	    -13.79561039	     11.06406785	     -2.68339585	     22.94467555	     -9.04164463	      2.48066576	    -32.86696193	     14.21609799	      2.85773352	     -1.46199475	      1.86774729	     18.11871454
      3.80000000	      0.60626387	     -5.13590397	     86.94617804	      0.46763060	      0.88482046	     -0.24557010	     12.12700203	      1.60022177	      0.08261304	    -13.80373103	     11.18427877	     -2.74373974	     22.60275705	     -9.14841514	      2.65479448	    -31.26954668	     14.07974014	      3.17475961	     -1.23244333	      1.83850478	     18.07076154
      3.81000000	      0.54905143	     -5.35424972	     86.61534265	      0.46798442	      0.88449588	     -0.24769919	     12.23720845	      1.61008922	      0.36278625	    -13.80954185	     11.30275360	     -2.78704186	     22.25658881	     -9.23891188	      2.78706779	    -29.73464997	     13.87453708	      3.57358342	     -0.99339094	      1.81005316	     17.99810932
      3.82000000	      0.49498170	     -5.56852314	     86.29832166	      0.46821807	      0.88416337	     -0.24978640	     12.34616254	      1.61317948	      0.62391872	    -13.81769426	     11.42456036	     -2.81248185	     21.89988046	     -9.32082518	      2.86674378	    -28.27677646	     13.59368306	      4.02193296	     -0.75922435	      1.78912922	     17.89615939
      3.83000000	      0.44002995	     -5.77805876	     85.99218271	      0.46832908	      0.88382270	     -0.25182976	     12.45681995	      1.60350443	      0.86296897	    -13.83195887	     11.55056627	     -2.81978473	     21.53658686	     -9.38838680	      2.88162072	    -26.90893119	     13.20872079	      4.43832754	     -0.52965049	      1.77227240	     17.77011855
      3.84000000	      0.39362166	     -5.99050525	     85.70732028	      0.46831188	      0.88346412	     -0.25386193	     12.56117291	      1.59082395	      1.06358449	    -13.82803345	     11.67079575	     -2.81286136	     21.17780204	     -9.44871257	      2.81741133	    -25.63625092	     12.70879962	      4.79378612	     -0.29086394	      1.76697234	     17.62141527
      3.85000000	      0.38263492	     -6.17059057	     85.43835651	      0.46818764	      0.88312580	     -0.25584833	     12.63626810	      1.60544818	      1.27244009	    -13.83897191	     11.79568508	     -2.77672025	     20.79353154	     -9.53202627	      2.66695922	    -24.47502023	     12.10511301	      5.25008597	     -0.09454166	      1.80353384	     17.43647085
      3.86000000	      0.35843884	     -6.36009323	     85.17855677	      0.46794388	      0.88274918	     -0.25780938	     12.73418180	      1.59601184	      1.45387948	    -13.86738375	     11.93516137	     -2.74325834	     20.41735094	     -9.58312073	      2.42662859	    -23.40510331	     11.41618396	      5.48265669	      0.11916887	      1.82656715	     17.23936456
      3.87000000	      0.35307847	     -6.55132342	     84.94401213	      0.46756103	      0.88235473	     -0.25977467	     12.81702169	      1.59264488	      1.60470012	    -13.86604331	     12.05358147	     -2.69974039	     20.05098366	     -9.63500471	      2.08618087	    -22.43670426	     10.67599834	      5.64848676	      0.34285685	      1.87383902	     17.02559754
      3.88000000	      0.36245691	     -6.72167531	     84.71291031	      0.46709137	      0.88196866	     -0.26171450	     12.88833698	      1.59807743	      1.76570829	    -13.88843723	     12.18261368	     -2.63856046	     19.66368210	     -9.68989277	      1.64481703	    -21.55641308	      9.95996246	      5.76459176	      0.54339485	      1.93924430	     16.79845044
      3.89000000	      0.38809379	     -6.88551806	     84.49368106	      0.46653117	      0.88157169	     -0.26362631	     12.95534176	      1.61301661	      1.91465351	    -13.91378303	     12.31625923	     -2.56645469	     19.27280523	     -9.75014059	      1.11035720	    -20.75299325	      9.35416274	      5.80377785	      0.73675458	      2.02163465	     16.56753745
      3.90000000	      0.43343532	     -7.04828156	     84.29512122	      0.46587366	      0.88116571	     -0.26547528	     13.03439004	      1.64326272	      2.07065824	    -13.96402270	     12.42968505	     -2.50262393	     18.89826199	     -9.81647037	      0.52069113	    -20.02741456	      8.89185304	      5.77406271	      0.92555371	      2.12596205	     16.30193058
      3.91000000	      0.46781697	     -7.19785537	     84.09070127	      0.46516111	      0.88078006	     -0.26731721	     13.10600334	      1.65785766	      2.21876772	    -14.02167205	     12.57146735	     -2.43126570	     18.50181323	     -9.86540981	     -0.15266446	    -19.33327108	      8.62140913	      5.69190705	      1.10462742	      2.21280524	     16.06953758
      3.92000000	      0.49562831	     -7.34194435	     83.90339565	      0.46436588	      0.88041861	     -0.26911404	     13.18195307	      1.65932594	      2.35181446	    -14.09232833	     12.71106108	     -2.36547089	     18.11233422	     -9.89212251	     -0.83790273	    -18.67366225	      8.50503511	      5.57127276	      1.27836548	      2.28710668	     15.82749725
      3.93000000	      0.50392140	     -7.48011075	     83.73815917	      0.46348885	      0.88009761	     -0.27085126	     13.26770518	      1.63437849	      2.47225706	    -14.18423171	     12.84823319	     -2.31399307	     17.73557962	     -9.87987559	     -1.49947949	    -18.03791269	      8.48735061	      5.43284973	      1.44590400	      2.33067320	     15.57097674
      3.94000000	      0.48151421	     -7.61282999	     83.59603301	      0.46252545	      0.87983280	     -0.27252258	     13.36148714	      1.56899651	      2.57018549	    -14.28882333	     12.98355450	     -2.27916268	     17.37781988	     -9.81729002	     -2.11139876	    -17.42023180	      8.51667870	      5.29472149	      1.60713284	      2.33173189	     15.29413404
      3.95000000	      0.42300596	     -7.73763861	     83.47929395	      0.46148035	      0.87963660	     -0.27410926	     13.46043229	      1.45760468	      2.64445827	    -14.39931746	     13.11665728	     -2.25711418	     17.04542251	     -9.69902065	     -2.66047028	    -16.82534377	      8.54999137	      5.17133620	      1.75597953	      2.28131937	     15.00247663
      3.96000000	      0.32829005	     -7.85323586	     83.38870724	      0.46037286	      0.87951344	     -0.27565025	     13.56261410	      1.30016915	      2.69594400	    -14.52290628	     13.24214158	     -2.24261788	     16.73787319	     -9.52984618	     -3.13581903	    -16.25910130	      8.56615860	      5.08668374	      1.90189565	      2.17688790	     14.69869939
      3.97000000	      0.20138948	     -7.96099770	     83.32271120	      0.45920345	      0.87945776	     -0.27713331	     13.66168057	      1.09957225	      2.71972728	    -14.64013037	     13.35906432	     -2.22264952	     16.45808071	     -9.31786960	     -3.53984011	    -15.72364290	      8.55423512	      5.04470196	      2.04121989	      2.02499888	     14.39105602
      3.98000000	      0.04684739	     -8.06093798	     83.27603914	      0.45798120	      0.87946391	     -0.27858871	     13.75451710	      0.86044701	      2.71388731	    -14.74940756	     13.46352641	     -2.18715095	     16.19951609	     -9.07061366	     -3.86760724	    -15.21733179	      8.51206503	      5.05032722	      2.18001226	      1.83434709	     14.08494270
